<svg width="512" height="512" viewBox="0 0 512 512" fill="none" xmlns="http://www.w3.org/2000/svg">
    <!-- Background Gradient -->
    <rect width="512" height="512" rx="110" fill="url(#paint0_linear)"/>

    <!-- Shield Shape -->
    <path d="M256 70C256 70 140 110 100 130C100 240 100 310 256 440C412 310 412 240 412 130C372 110 256 70 256 70Z" fill="white" fill-opacity="0.15"/>

    <!-- Stylized Person / Keyhole Shape -->
    <circle cx="256" cy="190" r="55" fill="white"/>
    <path d="M166 360C166 300 206 260 256 260C306 260 346 300 346 360V380H166V360Z" fill="white"/>

    <!-- Accent Checkmark for Productivity -->
    <path d="M330 310L355 335L410 280" stroke="#00D27F" stroke-width="25" stroke-linecap="round" stroke-linejoin="round"/>

    <defs>
        <linearGradient id="paint0_linear" x1="0" y1="0" x2="512" y2="512" gradientUnits="userSpaceOnUse">
            <stop stop-color="#2D62ED"/>
            <stop offset="1" stop-color="#FB4B93"/>
        </linearGradient>
    </defs>
</svg>
